<svg width="28" height="18" viewBox="0 0 28 18" fill="none" xmlns="http://www.w3.org/2000/svg">
<path d="M12.332 3.85667L15.0375 5.9159C15.9992 4.65244 17.4839 3.9 19.0999 3.9C21.9165 3.9 24.1999 6.18335 24.1999 9C24.1999 11.8167 21.9165 14.1 19.0999 14.1C17.657 14.1 16.318 13.5022 15.3562 12.4634L12.8614 14.7733C14.414 16.4503 16.6344 17.5 19.0999 17.5C23.7943 17.5 27.5999 13.6944 27.5999 9C27.5999 4.30558 23.7943 0.5 19.0999 0.5C16.3385 0.5 13.8847 1.81677 12.332 3.85667Z" fill="#4A4EEE"/>
<path fill-rule="evenodd" clip-rule="evenodd" d="M8.89844 17.5C4.20402 17.5 0.398438 13.6944 0.398438 9C0.398438 4.30558 4.20402 0.5 8.89844 0.5C13.5929 0.5 17.3984 4.30558 17.3984 9C17.3984 13.6944 13.5929 17.5 8.89844 17.5Z" fill="#4A4EEE"/>
</svg>
