<svg width="26" height="26" viewBox="0 0 26 26" stroke="none" xmlns="http://www.w3.org/2000/svg">
<path d="M3.08333 22.9167H24.3333C25.1157 22.9167 25.75 23.5509 25.75 24.3333C25.75 25.1157 25.1157 25.75 24.3333 25.75H1.66667C0.884263 25.75 0.25 25.1157 0.25 24.3333V1.66667C0.25 0.884263 0.884263 0.25 1.66667 0.25C2.44907 0.25 3.08333 0.884263 3.08333 1.66667V22.9167Z" fill="#4A4EEE"/>
<path d="M8.36815 16.802C7.83303 17.3728 6.93652 17.4017 6.36572 16.8666C5.79493 16.3315 5.76601 15.4349 6.30113 14.8641L11.6136 9.19748C12.1312 8.64546 12.9911 8.59759 13.5667 9.08876L17.7597 12.6668L23.2227 5.7469C23.7075 5.13281 24.5984 5.028 25.2125 5.51282C25.8266 5.99763 25.9314 6.88847 25.4466 7.50256L19.0716 15.5776C18.5736 16.2083 17.6513 16.299 17.0401 15.7774L12.756 12.1216L8.36815 16.802Z" fill="#4A4EEE"/>
</svg>
