<svg width="25" height="25" viewBox="0 0 25 25" stroke="none" xmlns="http://www.w3.org/2000/svg">
<path fill-rule="evenodd" clip-rule="evenodd" d="M12.2881 16.4334L15.8215 12.7933C16.7974 11.788 17.0393 10.2522 16.4221 8.98052L16.2219 8.56803C15.6047 7.29638 15.8466 5.76054 16.8225 4.75521L21.2036 0.241863C21.5167 -0.080621 22.0242 -0.080621 22.3372 0.241863C22.3981 0.304623 22.4489 0.37709 22.4874 0.456475L24.2572 4.103C25.6112 6.89264 25.0805 10.2618 22.9397 12.4672L13.3226 22.3746C10.9923 24.7751 7.54549 25.6134 4.41912 24.5398L0.548316 23.2106C0.128333 23.0664 -0.0986424 22.5987 0.041352 22.1661C0.0807038 22.0445 0.147002 21.9339 0.234995 21.8433L4.48541 17.4646C5.46129 16.4593 6.95214 16.21 8.18654 16.8459L8.58694 17.0521C9.82134 17.6879 11.3122 17.4387 12.2881 16.4334Z" fill="#6366F1"/>
</svg>
