<svg width="11" height="14" viewBox="0 0 11 14" fill="none" xmlns="http://www.w3.org/2000/svg">
<path d="M5.49997 14C4.50757 13.1622 3.5877 12.2438 2.74999 11.2542C1.49285 9.76821 6.94303e-07 7.55511 6.94303e-07 5.44621C-0.00111357 3.24364 1.33904 1.25749 3.39511 0.414555C5.45117 -0.428376 7.81787 0.0380666 9.39081 1.59622C10.4252 2.61538 11.0046 4.0017 11 5.44621C11 7.55511 9.5071 9.76821 8.24996 11.2542C7.41225 12.2438 6.49238 13.1622 5.49997 14ZM5.49997 3.11336C4.65785 3.11336 3.8797 3.558 3.45864 4.27978C3.03758 5.00157 3.03758 5.89085 3.45864 6.61264C3.8797 7.33442 4.65785 7.77906 5.49997 7.77906C6.80178 7.77906 7.8571 6.73461 7.8571 5.44621C7.8571 4.15781 6.80178 3.11336 5.49997 3.11336Z" fill="#69717D"/>
</svg>
