<svg width="492" height="758" viewBox="0 0 492 758" fill="none" xmlns="http://www.w3.org/2000/svg">
<path opacity="0.03" d="M117 225L15.675 56.25L218.325 56.25L117 225Z" fill="#436FFB"/>
<path opacity="0.03" d="M250.5 77L338.402 223.25L162.598 223.25L250.5 77Z" fill="#436FFB"/>
<path opacity="0.03" d="M414.5 10L481.617 121.75L347.383 121.75L414.5 10Z" fill="#436FFB"/>
<path opacity="0.03" d="M407.5 291L349.909 195L465.091 195L407.5 291Z" fill="#436FFB"/>
<path opacity="0.03" d="M376 449L306.718 333.5L445.282 333.5L376 449Z" fill="#436FFB"/>
<path opacity="0.03" d="M402.5 472L459.225 566.5H345.775L402.5 472Z" fill="#436FFB"/>
<path opacity="0.03" d="M274 370L316.435 440.5H231.565L274 370Z" fill="#436FFB"/>
<path opacity="0.03" d="M298 647L264.225 590.75L331.775 590.75L298 647Z" fill="#436FFB"/>
<path opacity="0.03" d="M406.5 683L380.086 638.75L432.914 638.75L406.5 683Z" fill="#436FFB"/>
<path opacity="0.03" d="M376 678L412.373 738H339.627L376 678Z" fill="#436FFB"/>
<path opacity="0.03" d="M172 438L87.9955 297.75L256.004 297.75L172 438Z" fill="#436FFB"/>
</svg>
