<svg width="148" height="50" viewBox="0 0 148 50" fill="none" xmlns="http://www.w3.org/2000/svg">
<path d="M7.58619 45.3921V46.6309H1.263V45.3921H7.58619ZM1.58285 35.1429V46.6309H0V35.1429H1.58285ZM6.74966 40.0821V41.3209H1.263V40.0821H6.74966ZM7.50418 35.1429V36.3896H1.263V35.1429H7.50418Z" fill="white"/>
<path d="M10.8257 39.7902V46.6309H9.30026V38.0938H10.7437L10.8257 39.7902ZM10.514 42.0389L9.80874 42.0152C9.81421 41.4313 9.89349 40.8922 10.0466 40.3977C10.1997 39.898 10.4266 39.4641 10.7273 39.0959C11.028 38.7277 11.4025 38.4436 11.8509 38.2437C12.2992 38.0386 12.8186 37.936 13.4091 37.936C13.8246 37.936 14.2074 37.9939 14.5573 38.1096C14.9072 38.2201 15.2107 38.3963 15.4676 38.6382C15.7246 38.8802 15.9242 39.1905 16.0663 39.5693C16.2085 39.948 16.2796 40.4056 16.2796 40.9421V46.6309H14.7623V41.0131C14.7623 40.566 14.683 40.2084 14.5245 39.9401C14.3714 39.6718 14.1527 39.4772 13.8684 39.3562C13.5841 39.23 13.2505 39.1669 12.8678 39.1669C12.4195 39.1669 12.045 39.2431 11.7442 39.3957C11.4435 39.5482 11.203 39.7586 11.0225 40.0269C10.8421 40.2951 10.7109 40.6029 10.6289 40.95C10.5523 41.2919 10.514 41.6549 10.514 42.0389ZM16.2632 41.2341L15.2462 41.5339C15.2517 41.0657 15.3309 40.616 15.484 40.1847C15.6426 39.7534 15.8695 39.3694 16.1647 39.0327C16.4655 38.6961 16.8345 38.4305 17.2719 38.2358C17.7093 38.036 18.2096 37.936 18.7727 37.936C19.2484 37.936 19.6694 37.9965 20.0357 38.1175C20.4075 38.2385 20.7192 38.4252 20.9707 38.6777C21.2277 38.9249 21.4218 39.2431 21.553 39.6324C21.6842 40.0216 21.7498 40.4845 21.7498 41.021V46.6309H20.2244V41.0053C20.2244 40.5266 20.1451 40.1558 19.9865 39.8928C19.8334 39.6245 19.6147 39.4378 19.3304 39.3326C19.0516 39.2221 18.7181 39.1669 18.3299 39.1669C17.9964 39.1669 17.7011 39.2221 17.4441 39.3326C17.1872 39.443 16.9712 39.5956 16.7962 39.7902C16.6213 39.9795 16.4873 40.1978 16.3944 40.4451C16.3069 40.6923 16.2632 40.9553 16.2632 41.2341Z" fill="white"/>
<path d="M25.5634 39.735V49.9132H24.038V38.0938H25.4322L25.5634 39.735ZM31.5421 42.2913V42.457C31.5421 43.0777 31.4656 43.6537 31.3125 44.185C31.1594 44.711 30.9353 45.1686 30.64 45.5578C30.3502 45.9471 29.9921 46.2495 29.5656 46.4652C29.1392 46.6809 28.6498 46.7887 28.0976 46.7887C27.5345 46.7887 27.0369 46.6993 26.605 46.5204C26.173 46.3416 25.8067 46.0812 25.506 45.7393C25.2053 45.3974 24.9647 44.9871 24.7843 44.5084C24.6093 44.0298 24.489 43.4906 24.4234 42.891V42.0073C24.489 41.3761 24.6121 40.8106 24.7925 40.3109C24.9729 39.8112 25.2108 39.3852 25.506 39.0327C25.8067 38.6751 26.1703 38.4042 26.5968 38.2201C27.0232 38.0307 27.5153 37.936 28.073 37.936C28.6307 37.936 29.1255 38.0412 29.5574 38.2516C29.9894 38.4568 30.353 38.7513 30.6482 39.1353C30.9435 39.5193 31.1649 39.9795 31.3125 40.5161C31.4656 41.0473 31.5421 41.6391 31.5421 42.2913ZM30.0167 42.457V42.2913C30.0167 41.8653 29.9702 41.4655 29.8773 41.092C29.7843 40.7133 29.6395 40.3819 29.4426 40.0979C29.2513 39.8086 29.0052 39.5824 28.7045 39.4193C28.4038 39.251 28.0457 39.1669 27.6301 39.1669C27.2474 39.1669 26.9139 39.23 26.6296 39.3562C26.3507 39.4825 26.1129 39.6534 25.9161 39.8691C25.7192 40.0795 25.5579 40.3214 25.4322 40.595C25.3119 40.8632 25.2217 41.142 25.1615 41.4313V43.4748C25.2709 43.8431 25.424 44.1902 25.6208 44.5163C25.8176 44.8372 26.0801 45.0976 26.4081 45.2975C26.7362 45.4921 27.149 45.5894 27.6465 45.5894C28.0566 45.5894 28.4093 45.5079 28.7045 45.3448C29.0052 45.1765 29.2513 44.9477 29.4426 44.6584C29.6395 44.3691 29.7843 44.0377 29.8773 43.6642C29.9702 43.2855 30.0167 42.8831 30.0167 42.457Z" fill="white"/>
<path d="M33.0758 42.457V42.2756C33.0758 41.6601 33.1687 41.0894 33.3546 40.5634C33.5405 40.0321 33.8084 39.5719 34.1584 39.1826C34.5083 38.7881 34.932 38.4831 35.4296 38.2674C35.9271 38.0465 36.4848 37.936 37.1026 37.936C37.7259 37.936 38.2863 38.0465 38.7839 38.2674C39.2869 38.4831 39.7134 38.7881 40.0633 39.1826C40.4187 39.5719 40.6893 40.0321 40.8752 40.5634C41.0611 41.0894 41.1541 41.6601 41.1541 42.2756V42.457C41.1541 43.0725 41.0611 43.6432 40.8752 44.1692C40.6893 44.6952 40.4187 45.1554 40.0633 45.5499C39.7134 45.9392 39.2896 46.2443 38.7921 46.4652C38.3 46.6809 37.7423 46.7887 37.119 46.7887C36.4957 46.7887 35.9353 46.6809 35.4378 46.4652C34.9402 46.2443 34.5137 45.9392 34.1584 45.5499C33.8084 45.1554 33.5405 44.6952 33.3546 44.1692C33.1687 43.6432 33.0758 43.0725 33.0758 42.457ZM34.593 42.2756V42.457C34.593 42.8831 34.645 43.2855 34.7489 43.6642C34.8527 44.0377 35.0086 44.3691 35.2163 44.6584C35.4296 44.9477 35.6947 45.1765 36.0118 45.3448C36.329 45.5079 36.698 45.5894 37.119 45.5894C37.5346 45.5894 37.8981 45.5079 38.2098 45.3448C38.5269 45.1765 38.7894 44.9477 38.9971 44.6584C39.2049 44.3691 39.3607 44.0377 39.4646 43.6642C39.5739 43.2855 39.6286 42.8831 39.6286 42.457V42.2756C39.6286 41.8548 39.5739 41.4576 39.4646 41.0842C39.3607 40.7054 39.2021 40.3714 38.9889 40.0821C38.7812 39.7876 38.5187 39.5561 38.2016 39.3878C37.8899 39.2195 37.5236 39.1353 37.1026 39.1353C36.6871 39.1353 36.3208 39.2195 36.0036 39.3878C35.692 39.5561 35.4296 39.7876 35.2163 40.0821C35.0086 40.3714 34.8527 40.7054 34.7489 41.0842C34.645 41.4576 34.593 41.8548 34.593 42.2756Z" fill="white"/>
<path d="M45.3039 45.116L47.5839 38.0938H48.5844L48.3876 39.4904L46.0666 46.6309H45.0907L45.3039 45.116ZM43.7703 38.0938L45.714 45.1949L45.8534 46.6309H44.8282L42.253 38.0938H43.7703ZM50.766 45.1397L52.6195 38.0938H54.1285L51.5533 46.6309H50.5363L50.766 45.1397ZM48.8059 38.0938L51.0366 44.9976L51.2908 46.6309H50.3231L47.9365 39.4746L47.7397 38.0938H48.8059Z" fill="white"/>
<path d="M59.3691 46.7887C58.7513 46.7887 58.1909 46.6887 57.6879 46.4889C57.1903 46.2837 56.7611 45.997 56.4002 45.6288C56.0449 45.2606 55.7715 44.8241 55.5801 44.3191C55.3888 43.8141 55.2931 43.2618 55.2931 42.6622V42.3308C55.2931 41.6365 55.3997 41.0184 55.6129 40.4766C55.8262 39.9296 56.1159 39.4667 56.4823 39.088C56.8486 38.7092 57.2641 38.4226 57.7289 38.2279C58.1936 38.0333 58.6747 37.936 59.1723 37.936C59.8065 37.936 60.3533 38.0412 60.8125 38.2516C61.2773 38.462 61.6573 38.7566 61.9525 39.1353C62.2478 39.5088 62.4665 39.9506 62.6086 40.4608C62.7508 40.9658 62.8219 41.5181 62.8219 42.1178V42.7726H56.1952V41.5812H61.3046V41.4708C61.2827 41.092 61.2007 40.7238 61.0586 40.3662C60.9219 40.0085 60.7032 39.7139 60.4025 39.4825C60.1018 39.251 59.6917 39.1353 59.1723 39.1353C58.8278 39.1353 58.5107 39.2063 58.2209 39.3483C57.9312 39.4851 57.6824 39.6902 57.4746 39.9638C57.2668 40.2373 57.1056 40.5713 56.9907 40.9658C56.8759 41.3603 56.8185 41.8153 56.8185 42.3308V42.6622C56.8185 43.0672 56.8759 43.4485 56.9907 43.8062C57.111 44.1587 57.2833 44.469 57.5074 44.7373C57.7371 45.0055 58.0132 45.2159 58.3358 45.3685C58.6638 45.521 59.0356 45.5973 59.4511 45.5973C59.9869 45.5973 60.4408 45.4921 60.8125 45.2817C61.1843 45.0713 61.5097 44.7899 61.7885 44.4374L62.707 45.1397C62.5157 45.4184 62.2724 45.6841 61.9771 45.9366C61.6819 46.189 61.3183 46.3942 60.8864 46.552C60.4599 46.7098 59.9541 46.7887 59.3691 46.7887Z" fill="white"/>
<path d="M66.1106 39.4351V46.6309H64.5933V38.0938H66.0696L66.1106 39.4351ZM68.8826 38.0465L68.8744 39.4036C68.7486 39.3773 68.6284 39.3615 68.5135 39.3562C68.4042 39.3457 68.2784 39.3404 68.1363 39.3404C67.7864 39.3404 67.4775 39.393 67.2095 39.4982C66.9416 39.6035 66.7147 39.7507 66.5288 39.9401C66.3429 40.1295 66.1953 40.3556 66.086 40.6186C65.9821 40.8764 65.9137 41.1604 65.8809 41.4708L65.4545 41.7075C65.4545 41.192 65.5064 40.7081 65.6103 40.2557C65.7196 39.8033 65.8864 39.4036 66.1106 39.0564C66.3347 38.704 66.619 38.4305 66.9635 38.2358C67.3134 38.036 67.729 37.936 68.2101 37.936C68.3195 37.936 68.4452 37.9492 68.5874 37.9755C68.7295 37.9965 68.8279 38.0202 68.8826 38.0465Z" fill="white"/>
<path d="M71.9335 38.0938V46.6309H70.408V38.0938H71.9335ZM70.2932 35.8294C70.2932 35.5927 70.367 35.3928 70.5147 35.2297C70.6678 35.0667 70.8919 34.9851 71.1872 34.9851C71.4769 34.9851 71.6984 35.0667 71.8515 35.2297C72.01 35.3928 72.0893 35.5927 72.0893 35.8294C72.0893 36.0555 72.01 36.2502 71.8515 36.4132C71.6984 36.571 71.4769 36.6499 71.1872 36.6499C70.8919 36.6499 70.6678 36.571 70.5147 36.4132C70.367 36.2502 70.2932 36.0555 70.2932 35.8294Z" fill="white"/>
<path d="M75.8865 39.9164V46.6309H74.3693V38.0938H75.8045L75.8865 39.9164ZM75.5257 42.0389L74.8941 42.0152C74.8996 41.4313 74.9898 40.8922 75.1648 40.3977C75.3398 39.898 75.5858 39.4641 75.9029 39.0959C76.22 38.7277 76.5973 38.4436 77.0347 38.2437C77.4776 38.0386 77.9669 37.936 78.5027 37.936C78.9401 37.936 79.3338 37.9939 79.6837 38.1096C80.0336 38.2201 80.3316 38.3989 80.5776 38.6461C80.8291 38.8933 81.0205 39.2142 81.1517 39.6087C81.283 39.998 81.3486 40.474 81.3486 41.0368V46.6309H79.8231V41.021C79.8231 40.5739 79.7548 40.2162 79.6181 39.948C79.4814 39.6745 79.2818 39.4772 79.0194 39.3562C78.757 39.23 78.4344 39.1669 78.0516 39.1669C77.6744 39.1669 77.3299 39.2431 77.0183 39.3957C76.7121 39.5482 76.4469 39.7586 76.2228 40.0269C76.0041 40.2951 75.8318 40.6029 75.7061 40.95C75.5858 41.2919 75.5257 41.6549 75.5257 42.0389Z" fill="white"/>
<path d="M89.4022 38.0938H90.78V46.4494C90.78 47.2016 90.6215 47.8433 90.3044 48.3746C89.9873 48.9059 89.5444 49.3082 88.9758 49.5818C88.4126 49.8606 87.762 49.9999 87.0238 49.9999C86.7177 49.9999 86.3568 49.9526 85.9413 49.8579C85.5312 49.7685 85.1266 49.6133 84.7275 49.3924C84.3338 49.1767 84.003 48.8848 83.7351 48.5166L84.5307 47.6487C84.9025 48.08 85.2906 48.3798 85.6952 48.5482C86.1053 48.7165 86.5099 48.8007 86.909 48.8007C87.3902 48.8007 87.8057 48.7139 88.1556 48.5403C88.5056 48.3667 88.7762 48.109 88.9676 47.7671C89.1644 47.4304 89.2628 47.0149 89.2628 46.5204V39.9717L89.4022 38.0938ZM83.2923 42.457V42.2913C83.2923 41.6391 83.3715 41.0473 83.5301 40.5161C83.6941 39.9795 83.9265 39.5193 84.2272 39.1353C84.5334 38.7513 84.9025 38.4568 85.3344 38.2516C85.7663 38.0412 86.2529 37.936 86.7942 37.936C87.3519 37.936 87.8385 38.0307 88.254 38.2201C88.675 38.4042 89.0304 38.6751 89.3202 39.0327C89.6155 39.3852 89.8478 39.8112 90.0173 40.3109C90.1868 40.8106 90.3044 41.3761 90.37 42.0073V42.7332C90.3098 43.3591 90.1923 43.922 90.0173 44.4217C89.8478 44.9214 89.6155 45.3474 89.3202 45.6999C89.0304 46.0523 88.675 46.3232 88.254 46.5125C87.833 46.6966 87.341 46.7887 86.7778 46.7887C86.2475 46.7887 85.7663 46.6809 85.3344 46.4652C84.9079 46.2495 84.5416 45.9471 84.2354 45.5578C83.9292 45.1686 83.6941 44.711 83.5301 44.185C83.3715 43.6537 83.2923 43.0777 83.2923 42.457ZM84.8095 42.2913V42.457C84.8095 42.8831 84.8532 43.2829 84.9407 43.6563C85.0337 44.0298 85.1731 44.3585 85.359 44.6426C85.5504 44.9266 85.7937 45.1502 86.0889 45.3132C86.3842 45.471 86.7368 45.5499 87.1469 45.5499C87.6499 45.5499 88.0654 45.4474 88.3935 45.2422C88.7215 45.0371 88.9812 44.7662 89.1726 44.4295C89.3694 44.0929 89.5225 43.7273 89.6319 43.3328V41.4313C89.5717 41.142 89.4788 40.8632 89.353 40.595C89.2327 40.3214 89.0742 40.0795 88.8773 39.8691C88.686 39.6534 88.4481 39.4825 88.1638 39.3562C87.8795 39.23 87.546 39.1669 87.1633 39.1669C86.7477 39.1669 86.3896 39.251 86.0889 39.4193C85.7937 39.5824 85.5504 39.8086 85.359 40.0979C85.1731 40.3819 85.0337 40.7133 84.9407 41.092C84.8532 41.4655 84.8095 41.8653 84.8095 42.2913Z" fill="white"/>
<path d="M100.966 38.0938V39.2142H96.1683V38.0938H100.966ZM97.7921 36.0187H99.3094V44.5163C99.3094 44.8056 99.3559 45.0239 99.4488 45.1712C99.5417 45.3185 99.662 45.4158 99.8097 45.4631C99.9573 45.5105 100.116 45.5342 100.285 45.5342C100.411 45.5342 100.542 45.5236 100.679 45.5026C100.821 45.4763 100.928 45.4553 100.999 45.4395L101.007 46.6309C100.887 46.6677 100.728 46.7019 100.531 46.7335C100.34 46.7703 100.108 46.7887 99.8343 46.7887C99.4625 46.7887 99.1208 46.7177 98.8091 46.5757C98.4975 46.4336 98.2487 46.1969 98.0628 45.8655C97.8824 45.5289 97.7921 45.0765 97.7921 44.5084V36.0187Z" fill="white"/>
<path d="M104.263 39.4351V46.6309H102.746V38.0938H104.222L104.263 39.4351ZM107.035 38.0465L107.027 39.4036C106.901 39.3773 106.781 39.3615 106.666 39.3562C106.557 39.3457 106.431 39.3404 106.289 39.3404C105.939 39.3404 105.63 39.393 105.362 39.4982C105.094 39.6035 104.867 39.7507 104.681 39.9401C104.495 40.1295 104.348 40.3556 104.238 40.6186C104.134 40.8764 104.066 41.1604 104.033 41.4708L103.607 41.7075C103.607 41.192 103.659 40.7081 103.763 40.2557C103.872 39.8033 104.039 39.4036 104.263 39.0564C104.487 38.704 104.771 38.4305 105.116 38.2358C105.466 38.036 105.881 37.936 106.362 37.936C106.472 37.936 106.598 37.9492 106.74 37.9755C106.882 37.9965 106.98 38.0202 107.035 38.0465Z" fill="white"/>
<path d="M113.342 45.1712V40.7764C113.342 40.4398 113.271 40.1479 113.129 39.9006C112.992 39.6482 112.784 39.4535 112.505 39.3168C112.226 39.18 111.882 39.1116 111.472 39.1116C111.089 39.1116 110.753 39.1748 110.463 39.301C110.179 39.4272 109.955 39.5929 109.791 39.7981C109.632 40.0032 109.553 40.2241 109.553 40.4608H108.036C108.036 40.1558 108.118 39.8533 108.282 39.5535C108.446 39.2537 108.681 38.9828 108.987 38.7408C109.299 38.4936 109.67 38.299 110.102 38.1569C110.54 38.0097 111.026 37.936 111.562 37.936C112.207 37.936 112.776 38.0412 113.268 38.2516C113.766 38.462 114.154 38.7803 114.433 39.2063C114.717 39.6271 114.859 40.1558 114.859 40.7922V44.7688C114.859 45.0529 114.884 45.3553 114.933 45.6762C114.988 45.997 115.067 46.2732 115.171 46.5046V46.6309H113.588C113.511 46.4626 113.451 46.239 113.407 45.9602C113.364 45.6762 113.342 45.4132 113.342 45.1712ZM113.604 41.455L113.621 42.4807H112.087C111.655 42.4807 111.27 42.5149 110.931 42.5833C110.592 42.6464 110.307 42.7437 110.078 42.8752C109.848 43.0067 109.673 43.1724 109.553 43.3723C109.433 43.5669 109.372 43.7957 109.372 44.0587C109.372 44.327 109.435 44.5716 109.561 44.7925C109.687 45.0134 109.875 45.1896 110.127 45.3211C110.384 45.4474 110.698 45.5105 111.07 45.5105C111.535 45.5105 111.945 45.4158 112.3 45.2264C112.656 45.0371 112.937 44.8056 113.145 44.5321C113.358 44.2586 113.473 43.993 113.489 43.7352L114.137 44.4374C114.099 44.6584 113.995 44.903 113.826 45.1712C113.656 45.4395 113.429 45.6972 113.145 45.9444C112.866 46.1864 112.533 46.3889 112.144 46.552C111.762 46.7098 111.33 46.7887 110.849 46.7887C110.247 46.7887 109.72 46.6756 109.266 46.4494C108.817 46.2232 108.467 45.9208 108.216 45.5421C107.97 45.1581 107.847 44.7294 107.847 44.256C107.847 43.7983 107.94 43.3959 108.126 43.0488C108.312 42.6964 108.58 42.4044 108.929 42.173C109.279 41.9363 109.7 41.7574 110.192 41.6365C110.685 41.5155 111.234 41.455 111.841 41.455H113.604Z" fill="white"/>
<path d="M122.839 44.974V34.5117H124.364V46.6309H122.97L122.839 44.974ZM116.868 42.457V42.2913C116.868 41.6391 116.95 41.0473 117.114 40.5161C117.284 39.9795 117.522 39.5193 117.828 39.1353C118.14 38.7513 118.509 38.4568 118.935 38.2516C119.367 38.0412 119.848 37.936 120.378 37.936C120.936 37.936 121.423 38.0307 121.838 38.2201C122.259 38.4042 122.615 38.6751 122.904 39.0327C123.2 39.3852 123.432 39.8112 123.602 40.3109C123.771 40.8106 123.889 41.3761 123.954 42.0073V42.7332C123.894 43.3591 123.777 43.922 123.602 44.4217C123.432 44.9214 123.2 45.3474 122.904 45.6999C122.615 46.0523 122.259 46.3232 121.838 46.5125C121.417 46.6966 120.925 46.7887 120.362 46.7887C119.843 46.7887 119.367 46.6809 118.935 46.4652C118.509 46.2495 118.14 45.9471 117.828 45.5578C117.522 45.1686 117.284 44.711 117.114 44.185C116.95 43.6537 116.868 43.0777 116.868 42.457ZM118.394 42.2913V42.457C118.394 42.8831 118.438 43.2829 118.525 43.6563C118.618 44.0298 118.76 44.3585 118.951 44.6426C119.143 44.9266 119.386 45.1502 119.681 45.3132C119.977 45.471 120.329 45.5499 120.739 45.5499C121.242 45.5499 121.655 45.4474 121.978 45.2422C122.306 45.0371 122.568 44.7662 122.765 44.4295C122.962 44.0929 123.115 43.7273 123.224 43.3328V41.4313C123.159 41.142 123.063 40.8632 122.937 40.595C122.817 40.3214 122.658 40.0795 122.462 39.8691C122.27 39.6534 122.032 39.4825 121.748 39.3562C121.469 39.23 121.138 39.1669 120.756 39.1669C120.34 39.1669 119.982 39.251 119.681 39.4193C119.386 39.5824 119.143 39.8086 118.951 40.0979C118.76 40.3819 118.618 40.7133 118.525 41.092C118.438 41.4655 118.394 41.8653 118.394 42.2913Z" fill="white"/>
<path d="M128.375 38.0938V46.6309H126.849V38.0938H128.375ZM126.734 35.8294C126.734 35.5927 126.808 35.3928 126.956 35.2297C127.109 35.0667 127.333 34.9851 127.628 34.9851C127.918 34.9851 128.14 35.0667 128.293 35.2297C128.451 35.3928 128.531 35.5927 128.531 35.8294C128.531 36.0555 128.451 36.2502 128.293 36.4132C128.14 36.571 127.918 36.6499 127.628 36.6499C127.333 36.6499 127.109 36.571 126.956 36.4132C126.808 36.2502 126.734 36.0555 126.734 35.8294Z" fill="white"/>
<path d="M132.328 39.9164V46.6309H130.811V38.0938H132.246L132.328 39.9164ZM131.967 42.0389L131.335 42.0152C131.341 41.4313 131.431 40.8922 131.606 40.3977C131.781 39.898 132.027 39.4641 132.344 39.0959C132.661 38.7277 133.039 38.4436 133.476 38.2437C133.919 38.0386 134.408 37.936 134.944 37.936C135.381 37.936 135.775 37.9939 136.125 38.1096C136.475 38.2201 136.773 38.3989 137.019 38.6461C137.27 38.8933 137.462 39.2142 137.593 39.6087C137.724 39.998 137.79 40.474 137.79 41.0368V46.6309H136.264V41.021C136.264 40.5739 136.196 40.2162 136.059 39.948C135.923 39.6745 135.723 39.4772 135.461 39.3562C135.198 39.23 134.876 39.1669 134.493 39.1669C134.116 39.1669 133.771 39.2431 133.46 39.3957C133.153 39.5482 132.888 39.7586 132.664 40.0269C132.445 40.2951 132.273 40.6029 132.147 40.95C132.027 41.2919 131.967 41.6549 131.967 42.0389Z" fill="white"/>
<path d="M145.843 38.0938H147.221V46.4494C147.221 47.2016 147.063 47.8433 146.746 48.3746C146.428 48.9059 145.986 49.3082 145.417 49.5818C144.854 49.8606 144.203 49.9999 143.465 49.9999C143.159 49.9999 142.798 49.9526 142.383 49.8579C141.972 49.7685 141.568 49.6133 141.169 49.3924C140.775 49.1767 140.444 48.8848 140.176 48.5166L140.972 47.6487C141.344 48.08 141.732 48.3798 142.137 48.5482C142.547 48.7165 142.951 48.8007 143.35 48.8007C143.831 48.8007 144.247 48.7139 144.597 48.5403C144.947 48.3667 145.217 48.109 145.409 47.7671C145.606 47.4304 145.704 47.0149 145.704 46.5204V39.9717L145.843 38.0938ZM139.734 42.457V42.2913C139.734 41.6391 139.813 41.0473 139.971 40.5161C140.135 39.9795 140.368 39.5193 140.668 39.1353C140.975 38.7513 141.344 38.4568 141.776 38.2516C142.208 38.0412 142.694 37.936 143.235 37.936C143.793 37.936 144.28 38.0307 144.695 38.2201C145.116 38.4042 145.472 38.6751 145.761 39.0327C146.057 39.3852 146.289 39.8112 146.459 40.3109C146.628 40.8106 146.746 41.3761 146.811 42.0073V42.7332C146.751 43.3591 146.634 43.922 146.459 44.4217C146.289 44.9214 146.057 45.3474 145.761 45.6999C145.472 46.0523 145.116 46.3232 144.695 46.5125C144.274 46.6966 143.782 46.7887 143.219 46.7887C142.689 46.7887 142.208 46.6809 141.776 46.4652C141.349 46.2495 140.983 45.9471 140.677 45.5578C140.37 45.1686 140.135 44.711 139.971 44.185C139.813 43.6537 139.734 43.0777 139.734 42.457ZM141.251 42.2913V42.457C141.251 42.8831 141.294 43.2829 141.382 43.6563C141.475 44.0298 141.614 44.3585 141.8 44.6426C141.992 44.9266 142.235 45.1502 142.53 45.3132C142.825 45.471 143.178 45.5499 143.588 45.5499C144.091 45.5499 144.507 45.4474 144.835 45.2422C145.163 45.0371 145.422 44.7662 145.614 44.4295C145.811 44.0929 145.964 43.7273 146.073 43.3328V41.4313C146.013 41.142 145.92 40.8632 145.794 40.595C145.674 40.3214 145.515 40.0795 145.319 39.8691C145.127 39.6534 144.889 39.4825 144.605 39.3562C144.321 39.23 143.987 39.1669 143.605 39.1669C143.189 39.1669 142.831 39.251 142.53 39.4193C142.235 39.5824 141.992 39.8086 141.8 40.0979C141.614 40.3819 141.475 40.7133 141.382 41.092C141.294 41.4655 141.251 41.8653 141.251 42.2913Z" fill="white"/>
<path d="M56.3145 0.35188V24.7298H50.156V0.35188H56.3145Z" fill="white"/>
<path d="M78.2713 16.4587H71.9016V11.9214H78.2713C79.1393 11.9214 79.8432 11.7818 80.3828 11.5028C80.9224 11.2237 81.3153 10.8386 81.5617 10.3475C81.8198 9.84522 81.9488 9.28153 81.9488 8.65646C81.9488 7.98673 81.8198 7.36724 81.5617 6.79797C81.3153 6.22871 80.9224 5.77106 80.3828 5.42504C79.8432 5.06785 79.1393 4.88926 78.2713 4.88926H74.2242V24.7298H68.0481V0.35188H78.2713C80.3241 0.35188 82.0896 0.709066 83.5676 1.42344C85.0574 2.13781 86.2011 3.12007 86.9988 4.37022C87.7965 5.60921 88.1953 7.02679 88.1953 8.62297C88.1953 10.1968 87.7965 11.5698 86.9988 12.7418C86.2011 13.9138 85.0574 14.8291 83.5676 15.4876C82.0896 16.135 80.3241 16.4587 78.2713 16.4587Z" fill="white"/>
<path d="M116.539 20.2092V24.7298H102.885V20.2092H116.539ZM105.084 0.35188V24.7298H98.9083V0.35188H105.084ZM114.78 10.0294V14.3993H102.885V10.0294H114.78ZM116.592 0.35188V4.88926H102.885V0.35188H116.592Z" fill="white"/>
<path d="M141.03 16.4755H147.188C147.106 18.1721 146.625 19.6678 145.746 20.9626C144.866 22.2574 143.646 23.2676 142.086 23.9931C140.537 24.7075 138.707 25.0647 136.596 25.0647C134.883 25.0647 133.352 24.7912 132.003 24.2443C130.666 23.6973 129.528 22.9104 128.59 21.8835C127.663 20.8566 126.953 19.612 126.461 18.1498C125.98 16.6876 125.739 15.0412 125.739 13.2106V11.8879C125.739 10.0573 125.991 8.41089 126.496 6.94866C127.012 5.47527 127.739 4.22512 128.678 3.19821C129.628 2.16013 130.766 1.36763 132.091 0.820686C133.417 0.273745 134.889 0.000274658 136.508 0.000274658C138.737 0.000274658 140.619 0.379785 142.156 1.13881C143.693 1.89783 144.883 2.94148 145.728 4.26976C146.573 5.58689 147.071 7.08819 147.224 8.77366H141.065C141.042 7.85837 140.877 7.09377 140.572 6.47985C140.267 5.85478 139.786 5.38597 139.13 5.07343C138.473 4.7609 137.599 4.60463 136.508 4.60463C135.745 4.60463 135.082 4.73857 134.519 5.00646C133.956 5.27435 133.487 5.69851 133.112 6.27894C132.736 6.85936 132.455 7.6128 132.267 8.53926C132.091 9.45454 132.003 10.5596 132.003 11.8544V13.2106C132.003 14.5054 132.085 15.6104 132.25 16.5257C132.414 17.441 132.678 18.1889 133.041 18.7693C133.405 19.3497 133.874 19.7795 134.449 20.0585C135.036 20.3264 135.751 20.4603 136.596 20.4603C137.534 20.4603 138.326 20.3208 138.971 20.0418C139.616 19.7516 140.115 19.3162 140.467 18.7358C140.819 18.1442 141.006 17.3908 141.03 16.4755Z" fill="white"/>
<path fill-rule="evenodd" clip-rule="evenodd" d="M14.4676 25.399L17.5424 20L21.4439 13.1492L28.4202 25.399L42.885 2.56396e-06H28.9324L25.9756 5.19197L21.4439 13.1492L13.9554 1.23659e-06L23.0187 2.03984e-06L13.9554 0L13.9554 1.23659e-06L5.91649 5.24116e-07L0.00282145 0L2.95966 5.19197L11.3929 20L14.4676 25.399Z" fill="white"/>
<path fill-rule="evenodd" clip-rule="evenodd" d="M34.4579 0.00646527L23.1556 19.6999L21.9345 18.9797L32.8483 0.000274658L34.4579 0.00646527Z" fill="#1D27B8"/>
<path fill-rule="evenodd" clip-rule="evenodd" d="M28.8662 18.9797L26.0434 23.9878L24.8167 23.2772L27.645 18.2594L38.145 0.000274658H39.911L28.8662 18.9797Z" fill="#1D27B8"/>
</svg>
