<svg width="148" height="26" viewBox="0 0 148 26" fill="none" xmlns="http://www.w3.org/2000/svg">
<path d="M56.3145 0.35188V24.7298H50.156V0.35188H56.3145Z" fill="white"/>
<path d="M78.2713 16.4587H71.9016V11.9214H78.2713C79.1393 11.9214 79.8432 11.7818 80.3828 11.5028C80.9224 11.2237 81.3153 10.8386 81.5617 10.3475C81.8198 9.84522 81.9488 9.28153 81.9488 8.65646C81.9488 7.98673 81.8198 7.36724 81.5617 6.79797C81.3153 6.22871 80.9224 5.77106 80.3828 5.42504C79.8432 5.06785 79.1393 4.88926 78.2713 4.88926H74.2242V24.7298H68.0481V0.35188H78.2713C80.3241 0.35188 82.0896 0.709066 83.5676 1.42344C85.0574 2.13781 86.2011 3.12007 86.9988 4.37022C87.7965 5.60921 88.1953 7.02679 88.1953 8.62297C88.1953 10.1968 87.7965 11.5698 86.9988 12.7418C86.2011 13.9138 85.0574 14.8291 83.5676 15.4876C82.0896 16.135 80.3241 16.4587 78.2713 16.4587Z" fill="white"/>
<path d="M116.539 20.2092V24.7298H102.885V20.2092H116.539ZM105.084 0.35188V24.7298H98.9083V0.35188H105.084ZM114.78 10.0294V14.3993H102.885V10.0294H114.78ZM116.592 0.35188V4.88926H102.885V0.35188H116.592Z" fill="white"/>
<path d="M141.03 16.4755H147.188C147.106 18.1721 146.625 19.6678 145.746 20.9626C144.866 22.2574 143.646 23.2676 142.086 23.9931C140.537 24.7075 138.707 25.0647 136.596 25.0647C134.883 25.0647 133.352 24.7912 132.003 24.2443C130.666 23.6973 129.528 22.9104 128.59 21.8835C127.663 20.8566 126.953 19.612 126.461 18.1498C125.98 16.6876 125.739 15.0412 125.739 13.2106V11.8879C125.739 10.0573 125.991 8.41089 126.496 6.94866C127.012 5.47527 127.739 4.22512 128.678 3.19821C129.628 2.16013 130.766 1.36763 132.091 0.820686C133.417 0.273745 134.889 0.000274658 136.508 0.000274658C138.737 0.000274658 140.619 0.379785 142.156 1.13881C143.693 1.89783 144.883 2.94148 145.728 4.26976C146.573 5.58689 147.071 7.08819 147.224 8.77366H141.065C141.042 7.85837 140.877 7.09377 140.572 6.47985C140.267 5.85478 139.786 5.38597 139.13 5.07343C138.473 4.7609 137.599 4.60463 136.508 4.60463C135.745 4.60463 135.082 4.73857 134.519 5.00646C133.956 5.27435 133.487 5.69851 133.112 6.27894C132.736 6.85936 132.455 7.6128 132.267 8.53926C132.091 9.45454 132.003 10.5596 132.003 11.8544V13.2106C132.003 14.5054 132.085 15.6104 132.25 16.5257C132.414 17.441 132.678 18.1889 133.041 18.7693C133.405 19.3497 133.874 19.7795 134.449 20.0585C135.036 20.3264 135.751 20.4603 136.596 20.4603C137.534 20.4603 138.326 20.3208 138.971 20.0418C139.616 19.7516 140.115 19.3162 140.467 18.7358C140.819 18.1442 141.006 17.3908 141.03 16.4755Z" fill="white"/>
<path fill-rule="evenodd" clip-rule="evenodd" d="M14.4676 25.399L17.5424 20L21.4439 13.1492L28.4202 25.399L42.885 2.56396e-06H28.9324L25.9756 5.19197L21.4439 13.1492L13.9554 1.23659e-06L23.0187 2.03984e-06L13.9554 0L13.9554 1.23659e-06L5.91649 5.24116e-07L0.00282145 0L2.95966 5.19197L11.3929 20L14.4676 25.399Z" fill="white"/>
<path fill-rule="evenodd" clip-rule="evenodd" d="M34.4579 0.00646527L23.1556 19.6999L21.9345 18.9797L32.8483 0.000274658L34.4579 0.00646527Z" fill="#1D27B8"/>
<path fill-rule="evenodd" clip-rule="evenodd" d="M28.8662 18.9797L26.0434 23.9878L24.8167 23.2772L27.645 18.2594L38.145 0.000274658H39.911L28.8662 18.9797Z" fill="#1D27B8"/>
</svg>
