<svg width="107" height="19" viewBox="0 0 107 19" fill="none" xmlns="http://www.w3.org/2000/svg">
<path d="M40.5467 0.253157V17.8054H36.1125V0.253157H40.5467Z" fill="#6366F1"/>
<path d="M56.3557 11.8502H51.7695V8.58324H56.3557C56.9807 8.58324 57.4874 8.48278 57.876 8.28186C58.2645 8.08094 58.5474 7.80367 58.7248 7.45006C58.9106 7.0884 59.0035 6.68255 59.0035 6.23249C59.0035 5.75029 58.9106 5.30425 58.7248 4.89437C58.5474 4.4845 58.2645 4.15499 57.876 3.90585C57.4874 3.64868 56.9807 3.52009 56.3557 3.52009H53.4418V17.8054H48.9949V0.253157H56.3557C57.8337 0.253157 59.1049 0.510333 60.1691 1.02468C61.2417 1.53904 62.0652 2.24627 62.6395 3.14638C63.2138 4.03846 63.501 5.05913 63.501 6.20838C63.501 7.34156 63.2138 8.33008 62.6395 9.17394C62.0652 10.0178 61.2417 10.6768 60.1691 11.151C59.1049 11.6171 57.8337 11.8502 56.3557 11.8502Z" fill="#6366F1"/>
<path d="M83.9088 14.5505V17.8054H74.0777V14.5505H83.9088ZM75.6613 0.253157V17.8054H71.2144V0.253157H75.6613ZM82.6419 7.22101V10.3674H74.0777V7.22101H82.6419ZM83.9468 0.253157V3.52009H74.0777V0.253157H83.9468Z" fill="#6366F1"/>
<path d="M101.542 11.8622H105.976C105.917 13.0838 105.571 14.1607 104.937 15.093C104.304 16.0253 103.426 16.7526 102.302 17.275C101.187 17.7893 99.8698 18.0465 98.3495 18.0465C97.1164 18.0465 96.0142 17.8496 95.0429 17.4558C94.0801 17.062 93.2608 16.4954 92.5851 15.756C91.9179 15.0166 91.4069 14.1205 91.0522 13.0677C90.7059 12.0149 90.5327 10.8295 90.5327 9.51148V8.55913C90.5327 7.2411 90.7143 6.05568 91.0775 5.00287C91.4491 3.94202 91.9728 3.04191 92.6485 2.30253C93.3326 1.55511 94.1519 0.9845 95.1063 0.5907C96.0607 0.1969 97.1206 0 98.2862 0C99.8909 0 101.247 0.273249 102.353 0.819747C103.459 1.36625 104.317 2.11768 104.925 3.07405C105.533 4.02239 105.892 5.10333 106.002 6.31688H101.567C101.551 5.65786 101.432 5.10735 101.213 4.66533C100.993 4.21527 100.647 3.87773 100.174 3.6527C99.7009 3.42767 99.0717 3.31515 98.2862 3.31515C97.7372 3.31515 97.26 3.4116 96.8546 3.60448C96.4492 3.79736 96.1113 4.10275 95.8411 4.52067C95.5708 4.93858 95.3681 5.48106 95.233 6.1481C95.1063 6.80712 95.0429 7.60275 95.0429 8.53502V9.51148C95.0429 10.4437 95.102 11.2394 95.2203 11.8984C95.3385 12.5574 95.5286 13.0959 95.7904 13.5138C96.0522 13.9317 96.3901 14.2411 96.8039 14.442C97.2262 14.6349 97.7414 14.7313 98.3495 14.7313C99.0252 14.7313 99.5953 14.6309 100.06 14.43C100.524 14.221 100.883 13.9076 101.137 13.4897C101.39 13.0637 101.525 12.5212 101.542 11.8622Z" fill="#6366F1"/>
<path fill-rule="evenodd" clip-rule="evenodd" d="M15.4396 9.46748L10.4167 18.2874L0.00195312 0H10.0479L15.4396 9.46748ZM20.8314 1.84606e-06L15.4396 9.46748L20.4626 18.2874L30.8773 1.84606e-06H20.8314Z" fill="#6366F1"/>
<path fill-rule="evenodd" clip-rule="evenodd" d="M24.8098 0.00445727L16.6721 14.1838L15.7929 13.6652L23.651 0L24.8098 0.00445727Z" fill="white"/>
<path fill-rule="evenodd" clip-rule="evenodd" d="M20.7838 13.6653L18.7513 17.2711L17.8682 16.7595L19.9045 13.1467L27.4646 0H28.7361L20.7838 13.6653Z" fill="white"/>
</svg>
