<svg width="107" height="36" viewBox="0 0 107 36" fill="none" xmlns="http://www.w3.org/2000/svg">
<path d="M5.46209 32.6826V33.5745H0.909364V32.6826H5.46209ZM1.13966 25.3031V33.5745H0V25.3031H1.13966ZM4.85979 28.8593V29.7512H0.909364V28.8593H4.85979ZM5.40304 25.3031V26.2007H0.909364V25.3031H5.40304Z" fill="#363293"/>
<path d="M7.79455 28.6492V33.5745H6.69623V27.4278H7.7355L7.79455 28.6492ZM7.57016 30.2682L7.06234 30.2512C7.06627 29.8308 7.12335 29.4426 7.23358 29.0866C7.34381 28.7268 7.50718 28.4143 7.72369 28.1492C7.94021 27.8841 8.20987 27.6796 8.53267 27.5357C8.85548 27.388 9.22946 27.3141 9.65462 27.3141C9.9538 27.3141 10.2294 27.3558 10.4813 27.4391C10.7333 27.5187 10.9517 27.6455 11.1368 27.8197C11.3218 27.994 11.4655 28.2174 11.5678 28.4901C11.6702 28.7628 11.7214 29.0923 11.7214 29.4786V33.5745H10.6289V29.5297C10.6289 29.2078 10.5719 28.9502 10.4577 28.7571C10.3475 28.5639 10.19 28.4238 9.98529 28.3367C9.78059 28.2458 9.54045 28.2004 9.26489 28.2004C8.94208 28.2004 8.67242 28.2553 8.45591 28.3651C8.23939 28.4749 8.06618 28.6264 7.93627 28.8196C7.80636 29.0127 7.71188 29.2343 7.65283 29.4842C7.59772 29.7304 7.57016 29.9917 7.57016 30.2682ZM11.7095 29.6888L10.9773 29.9046C10.9813 29.5676 11.0383 29.2438 11.1486 28.9332C11.2627 28.6226 11.4261 28.3462 11.6387 28.1038C11.8552 27.8614 12.1209 27.6701 12.4359 27.53C12.7508 27.3861 13.111 27.3141 13.5165 27.3141C13.8589 27.3141 14.1621 27.3577 14.4258 27.4448C14.6935 27.5319 14.9179 27.6664 15.099 27.8481C15.284 28.0261 15.4238 28.2553 15.5182 28.5355C15.6127 28.8158 15.66 29.1491 15.66 29.5354V33.5745H14.5616V29.524C14.5616 29.1794 14.5046 28.9124 14.3904 28.723C14.2802 28.5299 14.1227 28.3954 13.918 28.3197C13.7172 28.2401 13.4771 28.2004 13.1976 28.2004C12.9575 28.2004 12.7449 28.2401 12.5599 28.3197C12.3748 28.3992 12.2193 28.509 12.0934 28.6492C11.9674 28.7855 11.8709 28.9427 11.804 29.1207C11.741 29.2987 11.7095 29.488 11.7095 29.6888Z" fill="#363293"/>
<path d="M18.4058 28.6094V35.9377H17.3074V27.4278H18.3113L18.4058 28.6094ZM22.7105 30.45V30.5693C22.7105 31.0162 22.6554 31.4309 22.5452 31.8134C22.4349 32.1921 22.2735 32.5216 22.0609 32.8019C21.8523 33.0821 21.5945 33.2999 21.2874 33.4552C20.9803 33.6105 20.628 33.6881 20.2304 33.6881C19.8249 33.6881 19.4667 33.6237 19.1557 33.495C18.8447 33.3662 18.581 33.1787 18.3644 32.9325C18.1479 32.6864 17.9747 32.391 17.8448 32.0463C17.7188 31.7017 17.6322 31.3135 17.585 30.8817V30.2455C17.6322 29.791 17.7208 29.3839 17.8507 29.0241C17.9806 28.6643 18.1519 28.3575 18.3644 28.1038C18.581 27.8463 18.8427 27.6512 19.1498 27.5187C19.4569 27.3823 19.8112 27.3141 20.2127 27.3141C20.6142 27.3141 20.9705 27.3899 21.2815 27.5414C21.5925 27.6891 21.8543 27.9012 22.0668 28.1776C22.2794 28.4541 22.4389 28.7855 22.5452 29.1718C22.6554 29.5543 22.7105 29.9804 22.7105 30.45ZM21.6122 30.5693V30.45C21.6122 30.1432 21.5787 29.8554 21.5118 29.5865C21.4449 29.3138 21.3405 29.0752 21.1988 28.8707C21.061 28.6624 20.8839 28.4996 20.6674 28.3821C20.4509 28.261 20.193 28.2004 19.8938 28.2004C19.6183 28.2004 19.3781 28.2458 19.1734 28.3367C18.9726 28.4276 18.8014 28.5507 18.6597 28.706C18.518 28.8575 18.4018 29.0317 18.3113 29.2286C18.2247 29.4218 18.1597 29.6225 18.1164 29.8308V31.3021C18.1952 31.5672 18.3054 31.8172 18.4471 32.052C18.5888 32.283 18.7778 32.4705 19.014 32.6144C19.2502 32.7545 19.5474 32.8246 19.9056 32.8246C20.2009 32.8246 20.4548 32.7659 20.6674 32.6485C20.8839 32.5273 21.061 32.3626 21.1988 32.1543C21.3405 31.946 21.4449 31.7074 21.5118 31.4385C21.5787 31.1658 21.6122 30.8761 21.6122 30.5693Z" fill="#363293"/>
<path d="M23.8147 30.5693V30.4386C23.8147 29.9955 23.8816 29.5846 24.0155 29.2059C24.1493 28.8234 24.3422 28.492 24.5942 28.2117C24.8461 27.9277 25.1512 27.708 25.5094 27.5527C25.8677 27.3937 26.2692 27.3141 26.7141 27.3141C27.1628 27.3141 27.5663 27.3937 27.9246 27.5527C28.2867 27.708 28.5938 27.9277 28.8457 28.2117C29.1016 28.492 29.2965 28.8234 29.4303 29.2059C29.5642 29.5846 29.6311 29.9955 29.6311 30.4386V30.5693C29.6311 31.0124 29.5642 31.4233 29.4303 31.802C29.2965 32.1808 29.1016 32.5122 28.8457 32.7962C28.5938 33.0765 28.2887 33.2961 27.9305 33.4552C27.5762 33.6105 27.1746 33.6881 26.7259 33.6881C26.2771 33.6881 25.8736 33.6105 25.5153 33.4552C25.1571 33.2961 24.8501 33.0765 24.5942 32.7962C24.3422 32.5122 24.1493 32.1808 24.0155 31.802C23.8816 31.4233 23.8147 31.0124 23.8147 30.5693ZM24.9071 30.4386V30.5693C24.9071 30.8761 24.9445 31.1658 25.0193 31.4385C25.0941 31.7074 25.2063 31.946 25.3559 32.1543C25.5094 32.3626 25.7004 32.5273 25.9287 32.6485C26.157 32.7659 26.4227 32.8246 26.7259 32.8246C27.025 32.8246 27.2868 32.7659 27.5112 32.6485C27.7395 32.5273 27.9285 32.3626 28.0781 32.1543C28.2277 31.946 28.3399 31.7074 28.4147 31.4385C28.4934 31.1658 28.5328 30.8761 28.5328 30.5693V30.4386C28.5328 30.1357 28.4934 29.8497 28.4147 29.5808C28.3399 29.3081 28.2257 29.0676 28.0722 28.8593C27.9226 28.6473 27.7336 28.4806 27.5053 28.3594C27.2809 28.2382 27.0172 28.1776 26.7141 28.1776C26.4149 28.1776 26.1511 28.2382 25.9228 28.3594C25.6984 28.4806 25.5094 28.6473 25.3559 28.8593C25.2063 29.0676 25.0941 29.3081 25.0193 29.5808C24.9445 29.8497 24.9071 30.1357 24.9071 30.4386Z" fill="#363293"/>
<path d="M32.619 32.4838L34.2606 27.4278H34.981L34.8393 28.4333L33.1682 33.5745H32.4655L32.619 32.4838ZM31.5148 27.4278L32.9143 32.5406L33.0147 33.5745H32.2765L30.4224 27.4278H31.5148ZM36.5517 32.5008L37.8862 27.4278H38.9728L37.1186 33.5745H36.3864L36.5517 32.5008ZM35.1404 27.4278L36.7466 32.3985L36.9296 33.5745H36.2329L34.5145 28.4219L34.3728 27.4278H35.1404Z" fill="#363293"/>
<path d="M42.746 33.6881C42.3012 33.6881 41.8977 33.6161 41.5355 33.4722C41.1773 33.3245 40.8683 33.1181 40.6084 32.853C40.3526 32.5879 40.1557 32.2736 40.0179 31.91C39.8802 31.5464 39.8113 31.1487 39.8113 30.717V30.4784C39.8113 29.9785 39.888 29.5335 40.0416 29.1434C40.1951 28.7495 40.4037 28.4162 40.6675 28.1436C40.9312 27.8709 41.2304 27.6645 41.565 27.5243C41.8997 27.3842 42.2461 27.3141 42.6043 27.3141C43.061 27.3141 43.4546 27.3899 43.7853 27.5414C44.1199 27.6929 44.3935 27.905 44.6061 28.1776C44.8187 28.4465 44.9761 28.7647 45.0785 29.132C45.1808 29.4956 45.232 29.8933 45.232 30.325V30.7965H40.4608V29.9387H44.1396V29.8592C44.1239 29.5865 44.0648 29.3214 43.9625 29.0639C43.864 28.8063 43.7066 28.5942 43.4901 28.4276C43.2735 28.261 42.9783 28.1776 42.6043 28.1776C42.3563 28.1776 42.128 28.2288 41.9193 28.331C41.7107 28.4295 41.5316 28.5772 41.382 28.7741C41.2324 28.9711 41.1163 29.2116 41.0336 29.4956C40.9509 29.7796 40.9096 30.1072 40.9096 30.4784V30.717C40.9096 31.0086 40.9509 31.2832 41.0336 31.5407C41.1202 31.7945 41.2442 32.0179 41.4056 32.2111C41.5709 32.4042 41.7697 32.5557 42.002 32.6655C42.2382 32.7754 42.5059 32.8303 42.8051 32.8303C43.1909 32.8303 43.5176 32.7545 43.7853 32.6031C44.053 32.4516 44.2872 32.2489 44.488 31.9952L45.1493 32.5008C45.0116 32.7015 44.8364 32.8928 44.6238 33.0746C44.4112 33.2564 44.1494 33.4041 43.8384 33.5177C43.5314 33.6313 43.1673 33.6881 42.746 33.6881Z" fill="#363293"/>
<path d="M47.5999 28.3935V33.5745H46.5075V27.4278H47.5704L47.5999 28.3935ZM49.5958 27.3937L49.5899 28.3708C49.4993 28.3519 49.4127 28.3405 49.3301 28.3367C49.2513 28.3291 49.1608 28.3253 49.0584 28.3253C48.8065 28.3253 48.5841 28.3632 48.3912 28.439C48.1983 28.5147 48.0349 28.6207 47.9011 28.7571C47.7672 28.8934 47.6609 29.0563 47.5822 29.2456C47.5074 29.4312 47.4582 29.6357 47.4346 29.8592L47.1275 30.0296C47.1275 29.6585 47.1649 29.31 47.2397 28.9843C47.3184 28.6586 47.4385 28.3708 47.5999 28.1208C47.7613 27.8671 47.966 27.6701 48.214 27.53C48.466 27.3861 48.7652 27.3141 49.1116 27.3141C49.1903 27.3141 49.2809 27.3236 49.3832 27.3425C49.4856 27.3577 49.5564 27.3747 49.5958 27.3937Z" fill="#363293"/>
<path d="M51.7924 27.4278V33.5745H50.6941V27.4278H51.7924ZM50.6114 25.7973C50.6114 25.6269 50.6646 25.483 50.7709 25.3656C50.8811 25.2482 51.0425 25.1895 51.2551 25.1895C51.4637 25.1895 51.6232 25.2482 51.7334 25.3656C51.8475 25.483 51.9046 25.6269 51.9046 25.7973C51.9046 25.9602 51.8475 26.1003 51.7334 26.2177C51.6232 26.3313 51.4637 26.3882 51.2551 26.3882C51.0425 26.3882 50.8811 26.3313 50.7709 26.2177C50.6646 26.1003 50.6114 25.9602 50.6114 25.7973Z" fill="#363293"/>
<path d="M54.6386 28.74V33.5745H53.5462V27.4278H54.5796L54.6386 28.74ZM54.3788 30.2682L53.9241 30.2512C53.9281 29.8308 53.993 29.4426 54.119 29.0866C54.245 28.7268 54.4221 28.4143 54.6504 28.1492C54.8788 27.8841 55.1504 27.6796 55.4653 27.5357C55.7842 27.388 56.1365 27.3141 56.5223 27.3141C56.8372 27.3141 57.1207 27.3558 57.3726 27.4391C57.6246 27.5187 57.8391 27.6474 58.0163 27.8254C58.1973 28.0034 58.3351 28.2344 58.4296 28.5185C58.5241 28.7987 58.5713 29.1415 58.5713 29.5467V33.5745H57.473V29.5354C57.473 29.2135 57.4238 28.9559 57.3254 28.7628C57.227 28.5658 57.0833 28.4238 56.8943 28.3367C56.7054 28.2458 56.4731 28.2004 56.1975 28.2004C55.9259 28.2004 55.6779 28.2553 55.4535 28.3651C55.2331 28.4749 55.0421 28.6264 54.8807 28.8196C54.7233 29.0127 54.5993 29.2343 54.5087 29.4842C54.4221 29.7304 54.3788 29.9917 54.3788 30.2682Z" fill="#363293"/>
<path d="M64.37 27.4278H65.362V33.4438C65.362 33.9854 65.2479 34.4474 65.0196 34.83C64.7912 35.2125 64.4724 35.5022 64.063 35.6991C63.6575 35.8999 63.189 36.0002 62.6576 36.0002C62.4371 36.0002 62.1773 35.9661 61.8781 35.898C61.5829 35.8336 61.2916 35.7219 61.0042 35.5628C60.7207 35.4075 60.4826 35.1973 60.2897 34.9322L60.8625 34.3073C61.1301 34.6179 61.4097 34.8337 61.701 34.9549C61.9962 35.0761 62.2875 35.1367 62.5749 35.1367C62.9213 35.1367 63.2205 35.0742 63.4725 34.9493C63.7244 34.8243 63.9193 34.6387 64.057 34.3925C64.1988 34.1501 64.2696 33.851 64.2696 33.495V28.7798L64.37 27.4278ZM59.9708 30.5693V30.45C59.9708 29.9804 60.0279 29.5543 60.1421 29.1718C60.2602 28.7855 60.4275 28.4541 60.644 28.1776C60.8644 27.9012 61.1301 27.6891 61.4411 27.5414C61.7521 27.3899 62.1025 27.3141 62.4922 27.3141C62.8938 27.3141 63.2441 27.3823 63.5433 27.5187C63.8464 27.6512 64.1023 27.8463 64.311 28.1038C64.5235 28.3575 64.6908 28.6643 64.8129 29.0241C64.9349 29.3839 65.0196 29.791 65.0668 30.2455V30.7681C65.0235 31.2188 64.9389 31.624 64.8129 31.9838C64.6908 32.3436 64.5235 32.6504 64.311 32.9041C64.1023 33.1579 63.8464 33.3529 63.5433 33.4893C63.2402 33.6218 62.8859 33.6881 62.4804 33.6881C62.0986 33.6881 61.7521 33.6105 61.4411 33.4552C61.1341 33.2999 60.8703 33.0821 60.6499 32.8019C60.4294 32.5216 60.2602 32.1921 60.1421 31.8134C60.0279 31.4309 59.9708 31.0162 59.9708 30.5693ZM61.0632 30.45V30.5693C61.0632 30.8761 61.0947 31.1639 61.1577 31.4328C61.2246 31.7017 61.325 31.9384 61.4589 32.1429C61.5966 32.3474 61.7718 32.5084 61.9844 32.6258C62.197 32.7394 62.4509 32.7962 62.7461 32.7962C63.1083 32.7962 63.4075 32.7224 63.6437 32.5746C63.8799 32.4269 64.0669 32.2319 64.2047 31.9895C64.3464 31.7471 64.4566 31.4839 64.5353 31.1999V29.8308C64.492 29.6225 64.4251 29.4218 64.3346 29.2286C64.248 29.0317 64.1338 28.8575 63.9921 28.706C63.8543 28.5507 63.6831 28.4276 63.4784 28.3367C63.2737 28.2458 63.0335 28.2004 62.7579 28.2004C62.4588 28.2004 62.2009 28.261 61.9844 28.3821C61.7718 28.4996 61.5966 28.6624 61.4589 28.8707C61.325 29.0752 61.2246 29.3138 61.1577 29.5865C61.0947 29.8554 61.0632 30.1432 61.0632 30.45Z" fill="#363293"/>
<path d="M72.696 27.4278V28.2344H69.2416V27.4278H72.696ZM70.4108 25.9337H71.5032V32.052C71.5032 32.2603 71.5367 32.4175 71.6036 32.5235C71.6705 32.6296 71.7571 32.6996 71.8634 32.7337C71.9697 32.7678 72.0839 32.7848 72.2059 32.7848C72.2964 32.7848 72.3909 32.7773 72.4893 32.7621C72.5917 32.7432 72.6684 32.728 72.7196 32.7167L72.7255 33.5745C72.6389 33.601 72.5248 33.6256 72.383 33.6483C72.2453 33.6748 72.0779 33.6881 71.8811 33.6881C71.6134 33.6881 71.3674 33.637 71.143 33.5347C70.9186 33.4325 70.7395 33.262 70.6056 33.0234C70.4757 32.7811 70.4108 32.4553 70.4108 32.0463V25.9337Z" fill="#363293"/>
<path d="M75.0698 28.3935V33.5745H73.9774V27.4278H75.0403L75.0698 28.3935ZM77.0657 27.3937L77.0598 28.3708C76.9692 28.3519 76.8826 28.3405 76.8 28.3367C76.7212 28.3291 76.6307 28.3253 76.5283 28.3253C76.2764 28.3253 76.054 28.3632 75.8611 28.439C75.6682 28.5147 75.5048 28.6207 75.371 28.7571C75.2371 28.8934 75.1308 29.0563 75.0521 29.2456C74.9773 29.4312 74.9281 29.6357 74.9045 29.8592L74.5974 30.0296C74.5974 29.6585 74.6348 29.31 74.7096 28.9843C74.7883 28.6586 74.9084 28.3708 75.0698 28.1208C75.2312 27.8671 75.4359 27.6701 75.6839 27.53C75.9359 27.3861 76.235 27.3141 76.5815 27.3141C76.6602 27.3141 76.7507 27.3236 76.8531 27.3425C76.9555 27.3577 77.0263 27.3747 77.0657 27.3937Z" fill="#363293"/>
<path d="M81.6066 32.5235V29.3593C81.6066 29.1169 81.5554 28.9067 81.4531 28.7287C81.3547 28.5469 81.2051 28.4068 81.0043 28.3083C80.8035 28.2098 80.5555 28.1606 80.2603 28.1606C79.9847 28.1606 79.7426 28.206 79.534 28.2969C79.3292 28.3878 79.1678 28.5071 79.0497 28.6548C78.9356 28.8025 78.8785 28.9616 78.8785 29.132H77.7861C77.7861 28.9124 77.8451 28.6946 77.9632 28.4787C78.0813 28.2628 78.2506 28.0678 78.4711 27.8936C78.6954 27.7156 78.9631 27.5755 79.2741 27.4732C79.5891 27.3672 79.9394 27.3141 80.3252 27.3141C80.7897 27.3141 81.1992 27.3899 81.5535 27.5414C81.9117 27.6929 82.1912 27.922 82.392 28.2288C82.5967 28.5317 82.699 28.9124 82.699 29.3706V32.2338C82.699 32.4383 82.7167 32.6561 82.7522 32.8871C82.7915 33.1181 82.8486 33.317 82.9234 33.4836V33.5745H81.7837C81.7286 33.4533 81.6853 33.2923 81.6538 33.0916C81.6223 32.8871 81.6066 32.6977 81.6066 32.5235ZM81.7956 29.8478L81.8074 30.5863H80.7031C80.3921 30.5863 80.1146 30.611 79.8705 30.6602C79.6265 30.7056 79.4218 30.7757 79.2564 30.8704C79.0911 30.9651 78.9651 31.0844 78.8785 31.2283C78.7919 31.3684 78.7486 31.5332 78.7486 31.7225C78.7486 31.9157 78.7939 32.0918 78.8844 32.2508C78.975 32.4099 79.1108 32.5368 79.2918 32.6315C79.4769 32.7224 79.7032 32.7678 79.9709 32.7678C80.3055 32.7678 80.6008 32.6996 80.8567 32.5633C81.1125 32.4269 81.3153 32.2603 81.4649 32.0634C81.6184 31.8664 81.7011 31.6752 81.7129 31.4896L82.1794 31.9952C82.1518 32.1543 82.077 32.3304 81.955 32.5235C81.833 32.7167 81.6696 32.9022 81.4649 33.0802C81.2641 33.2545 81.024 33.4003 80.7445 33.5177C80.4689 33.6313 80.1579 33.6881 79.8115 33.6881C79.3785 33.6881 78.9986 33.6067 78.6718 33.4438C78.349 33.281 78.0971 33.0632 77.916 32.7905C77.7388 32.5141 77.6503 32.2054 77.6503 31.8645C77.6503 31.535 77.7172 31.2453 77.851 30.9954C77.9849 30.7416 78.1778 30.5314 78.4297 30.3648C78.6817 30.1944 78.9848 30.0656 79.3391 29.9785C79.6934 29.8914 80.089 29.8478 80.526 29.8478H81.7956Z" fill="#363293"/>
<path d="M88.4445 32.3815V24.8486H89.5429V33.5745H88.539L88.4445 32.3815ZM84.1457 30.5693V30.45C84.1457 29.9804 84.2048 29.5543 84.3229 29.1718C84.4449 28.7855 84.6162 28.4541 84.8366 28.1776C85.061 27.9012 85.3267 27.6891 85.6338 27.5414C85.9448 27.3899 86.2912 27.3141 86.673 27.3141C87.0746 27.3141 87.4249 27.3823 87.7241 27.5187C88.0273 27.6512 88.2831 27.8463 88.4918 28.1038C88.7044 28.3575 88.8717 28.6643 88.9937 29.0241C89.1157 29.3839 89.2004 29.791 89.2476 30.2455V30.7681C89.2043 31.2188 89.1197 31.624 88.9937 31.9838C88.8717 32.3436 88.7044 32.6504 88.4918 32.9041C88.2831 33.1579 88.0273 33.3529 87.7241 33.4893C87.421 33.6218 87.0667 33.6881 86.6612 33.6881C86.2873 33.6881 85.9448 33.6105 85.6338 33.4552C85.3267 33.2999 85.061 33.0821 84.8366 32.8019C84.6162 32.5216 84.4449 32.1921 84.3229 31.8134C84.2048 31.4309 84.1457 31.0162 84.1457 30.5693ZM85.244 30.45V30.5693C85.244 30.8761 85.2755 31.1639 85.3385 31.4328C85.4055 31.7017 85.5078 31.9384 85.6456 32.1429C85.7834 32.3474 85.9585 32.5084 86.1711 32.6258C86.3837 32.7394 86.6376 32.7962 86.9329 32.7962C87.295 32.7962 87.5923 32.7224 87.8245 32.5746C88.0607 32.4269 88.2497 32.2319 88.3914 31.9895C88.5331 31.7471 88.6433 31.4839 88.7221 31.1999V29.8308C88.6748 29.6225 88.6059 29.4218 88.5154 29.2286C88.4288 29.0317 88.3146 28.8575 88.1729 28.706C88.0351 28.5507 87.8639 28.4276 87.6592 28.3367C87.4584 28.2458 87.2202 28.2004 86.9447 28.2004C86.6455 28.2004 86.3876 28.261 86.1711 28.3821C85.9585 28.4996 85.7834 28.6624 85.6456 28.8707C85.5078 29.0752 85.4055 29.3138 85.3385 29.5865C85.2755 29.8554 85.244 30.1432 85.244 30.45Z" fill="#363293"/>
<path d="M92.4304 27.4278V33.5745H91.3321V27.4278H92.4304ZM91.2494 25.7973C91.2494 25.6269 91.3025 25.483 91.4088 25.3656C91.5191 25.2482 91.6805 25.1895 91.893 25.1895C92.1017 25.1895 92.2611 25.2482 92.3713 25.3656C92.4855 25.483 92.5426 25.6269 92.5426 25.7973C92.5426 25.9602 92.4855 26.1003 92.3713 26.2177C92.2611 26.3313 92.1017 26.3882 91.893 26.3882C91.6805 26.3882 91.5191 26.3313 91.4088 26.2177C91.3025 26.1003 91.2494 25.9602 91.2494 25.7973Z" fill="#363293"/>
<path d="M95.2766 28.74V33.5745H94.1842V27.4278H95.2175L95.2766 28.74ZM95.0168 30.2682L94.5621 30.2512C94.566 29.8308 94.631 29.4426 94.757 29.0866C94.8829 28.7268 95.0601 28.4143 95.2884 28.1492C95.5167 27.8841 95.7883 27.6796 96.1033 27.5357C96.4221 27.388 96.7745 27.3141 97.1603 27.3141C97.4752 27.3141 97.7586 27.3558 98.0106 27.4391C98.2625 27.5187 98.4771 27.6474 98.6542 27.8254C98.8353 28.0034 98.9731 28.2344 99.0676 28.5185C99.162 28.7987 99.2093 29.1415 99.2093 29.5467V33.5745H98.111V29.5354C98.111 29.2135 98.0618 28.9559 97.9633 28.7628C97.8649 28.5658 97.7212 28.4238 97.5323 28.3367C97.3433 28.2458 97.1111 28.2004 96.8355 28.2004C96.5639 28.2004 96.3159 28.2553 96.0915 28.3651C95.871 28.4749 95.6801 28.6264 95.5187 28.8196C95.3612 29.0127 95.2372 29.2343 95.1467 29.4842C95.0601 29.7304 95.0168 29.9917 95.0168 30.2682Z" fill="#363293"/>
<path d="M105.008 27.4278H106V33.4438C106 33.9854 105.886 34.4474 105.658 34.83C105.429 35.2125 105.11 35.5022 104.701 35.6991C104.295 35.8999 103.827 36.0002 103.296 36.0002C103.075 36.0002 102.815 35.9661 102.516 35.898C102.221 35.8336 101.93 35.7219 101.642 35.5628C101.359 35.4075 101.121 35.1973 100.928 34.9322L101.5 34.3073C101.768 34.6179 102.048 34.8337 102.339 34.9549C102.634 35.0761 102.925 35.1367 103.213 35.1367C103.559 35.1367 103.858 35.0742 104.11 34.9493C104.362 34.8243 104.557 34.6387 104.695 34.3925C104.837 34.1501 104.908 33.851 104.908 33.495V28.7798L105.008 27.4278ZM100.609 30.5693V30.45C100.609 29.9804 100.666 29.5543 100.78 29.1718C100.898 28.7855 101.065 28.4541 101.282 28.1776C101.502 27.9012 101.768 27.6891 102.079 27.5414C102.39 27.3899 102.74 27.3141 103.13 27.3141C103.532 27.3141 103.882 27.3823 104.181 27.5187C104.484 27.6512 104.74 27.8463 104.949 28.1038C105.161 28.3575 105.329 28.6643 105.451 29.0241C105.573 29.3839 105.658 29.791 105.705 30.2455V30.7681C105.661 31.2188 105.577 31.624 105.451 31.9838C105.329 32.3436 105.161 32.6504 104.949 32.9041C104.74 33.1579 104.484 33.3529 104.181 33.4893C103.878 33.6218 103.524 33.6881 103.118 33.6881C102.737 33.6881 102.39 33.6105 102.079 33.4552C101.772 33.2999 101.508 33.0821 101.288 32.8019C101.067 32.5216 100.898 32.1921 100.78 31.8134C100.666 31.4309 100.609 31.0162 100.609 30.5693ZM101.701 30.45V30.5693C101.701 30.8761 101.733 31.1639 101.796 31.4328C101.863 31.7017 101.963 31.9384 102.097 32.1429C102.235 32.3474 102.41 32.5084 102.622 32.6258C102.835 32.7394 103.089 32.7962 103.384 32.7962C103.746 32.7962 104.045 32.7224 104.282 32.5746C104.518 32.4269 104.705 32.2319 104.843 31.9895C104.984 31.7471 105.095 31.4839 105.173 31.1999V29.8308C105.13 29.6225 105.063 29.4218 104.973 29.2286C104.886 29.0317 104.772 28.8575 104.63 28.706C104.492 28.5507 104.321 28.4276 104.116 28.3367C103.912 28.2458 103.671 28.2004 103.396 28.2004C103.097 28.2004 102.839 28.261 102.622 28.3821C102.41 28.4996 102.235 28.6624 102.097 28.8707C101.963 29.0752 101.863 29.3138 101.796 29.5865C101.733 29.8554 101.701 30.1432 101.701 30.45Z" fill="#363293"/>
<path d="M40.5467 0.253157V17.8054H36.1125V0.253157H40.5467Z" fill="#363293"/>
<path d="M56.3557 11.8502H51.7695V8.58324H56.3557C56.9807 8.58324 57.4874 8.48278 57.876 8.28186C58.2645 8.08094 58.5474 7.80367 58.7248 7.45006C58.9106 7.0884 59.0035 6.68255 59.0035 6.23249C59.0035 5.75029 58.9106 5.30425 58.7248 4.89437C58.5474 4.4845 58.2645 4.15499 57.876 3.90585C57.4874 3.64868 56.9807 3.52009 56.3557 3.52009H53.4418V17.8054H48.9949V0.253157H56.3557C57.8337 0.253157 59.1049 0.510333 60.1691 1.02468C61.2417 1.53904 62.0652 2.24627 62.6395 3.14638C63.2139 4.03846 63.501 5.05913 63.501 6.20838C63.501 7.34156 63.2139 8.33008 62.6395 9.17394C62.0652 10.0178 61.2417 10.6768 60.1691 11.151C59.1049 11.6171 57.8337 11.8502 56.3557 11.8502Z" fill="#363293"/>
<path d="M83.9088 14.5505V17.8054H74.0777V14.5505H83.9088ZM75.6613 0.253157V17.8054H71.2144V0.253157H75.6613ZM82.6419 7.22101V10.3674H74.0777V7.22101H82.6419ZM83.9468 0.253157V3.52009H74.0777V0.253157H83.9468Z" fill="#363293"/>
<path d="M101.542 11.8622H105.976C105.917 13.0838 105.571 14.1607 104.937 15.093C104.304 16.0253 103.426 16.7526 102.302 17.275C101.187 17.7893 99.8698 18.0465 98.3495 18.0465C97.1164 18.0465 96.0142 17.8496 95.0429 17.4558C94.0801 17.062 93.2608 16.4954 92.5851 15.756C91.9179 15.0166 91.4069 14.1205 91.0522 13.0677C90.7059 12.0149 90.5327 10.8295 90.5327 9.51148V8.55912C90.5327 7.2411 90.7143 6.05568 91.0775 5.00287C91.4491 3.94202 91.9728 3.04191 92.6485 2.30253C93.3326 1.55511 94.1519 0.9845 95.1063 0.5907C96.0607 0.1969 97.1206 0 98.2862 0C99.8909 0 101.247 0.273249 102.353 0.819747C103.459 1.36625 104.317 2.11768 104.925 3.07405C105.533 4.02239 105.892 5.10333 106.002 6.31688H101.567C101.551 5.65786 101.432 5.10735 101.213 4.66533C100.993 4.21527 100.647 3.87773 100.174 3.6527C99.7009 3.42767 99.0717 3.31515 98.2862 3.31515C97.7372 3.31515 97.26 3.4116 96.8546 3.60448C96.4492 3.79736 96.1113 4.10276 95.8411 4.52067C95.5708 4.93858 95.3681 5.48106 95.233 6.1481C95.1063 6.80712 95.0429 7.60275 95.0429 8.53502V9.51148C95.0429 10.4437 95.102 11.2394 95.2203 11.8984C95.3385 12.5574 95.5286 13.0959 95.7904 13.5138C96.0522 13.9317 96.3901 14.2411 96.8039 14.442C97.2262 14.6349 97.7414 14.7313 98.3495 14.7313C99.0252 14.7313 99.5953 14.6309 100.06 14.43C100.524 14.221 100.883 13.9076 101.137 13.4897C101.39 13.0637 101.525 12.5212 101.542 11.8622Z" fill="#363293"/>
<path fill-rule="evenodd" clip-rule="evenodd" d="M15.4396 9.46748L10.4167 18.2874L0.00195312 0H10.0479L15.4396 9.46748ZM20.8314 1.84606e-06L15.4396 9.46748L20.4626 18.2874L30.8773 1.84606e-06H20.8314Z" fill="#363293"/>
<path fill-rule="evenodd" clip-rule="evenodd" d="M24.8098 0.00445727L16.6721 14.1838L15.7929 13.6652L23.651 0L24.8098 0.00445727Z" fill="white"/>
<path fill-rule="evenodd" clip-rule="evenodd" d="M20.7838 13.6653L18.7513 17.2711L17.8682 16.7595L19.9045 13.1467L27.4646 0H28.7361L20.7838 13.6653Z" fill="white"/>
</svg>
