<?xml version="1.0" encoding="utf-8"?><svg viewBox="0 0 30 26" xmlns="http://www.w3.org/2000/svg" xmlns:xlink="http://www.w3.org/1999/xlink"><style>:root>svg{display:none}:root>svg:target{display:block}</style><svg viewBox="0 0 30 25" id="adr" xmlns="http://www.w3.org/2000/svg"><rect x=".832" y=".666" width="28.333" height="7.083" rx="1"/><path fill-rule="evenodd" clip-rule="evenodd" d="M5.082 4.917V22.75a2 2 0 002 2h2.25V4.917h-4.25zm8.5 0V24.75h9.333a2 2 0 002-2V4.917H13.582z"/></svg><svg viewBox="0 0 28 18" id="circle" xmlns="http://www.w3.org/2000/svg"><path d="M12.332 3.857l2.705 2.059a5.1 5.1 0 11.319 6.548l-2.495 2.31a8.5 8.5 0 10-.53-10.917z"/><path fill-rule="evenodd" clip-rule="evenodd" d="M8.898 17.5a8.5 8.5 0 110-17 8.5 8.5 0 010 17z"/></svg><svg viewBox="0 0 26 26" id="graph" xmlns="http://www.w3.org/2000/svg"><rect x="20.082" y="1.666" width="4.25" height="18.417" rx="1.5"/><rect x="13" y="8.75" width="4.25" height="11.333" rx="1.5"/><path d="M3.083 22.917h21.25a1.417 1.417 0 110 2.833H1.667A1.417 1.417 0 01.25 24.333V1.667a1.417 1.417 0 112.833 0v21.25z"/><rect x="5.918" y="11.584" width="4.25" height="8.5" rx="1.5"/></svg><svg viewBox="0 0 26 26" id="line-graph" xmlns="http://www.w3.org/2000/svg"><path d="M3.083 22.917h21.25a1.417 1.417 0 110 2.833H1.667A1.417 1.417 0 01.25 24.333V1.667a1.417 1.417 0 112.833 0v21.25z"/><path d="M8.368 16.802a1.417 1.417 0 11-2.067-1.938l5.313-5.667a1.417 1.417 0 011.953-.108l4.193 3.578 5.463-6.92a1.417 1.417 0 012.224 1.756l-6.375 8.075c-.498.63-1.42.721-2.032.2l-4.284-3.656-4.388 4.68z"/></svg><svg viewBox="0 0 25 25" id="phone" xmlns="http://www.w3.org/2000/svg"><path fill-rule="evenodd" clip-rule="evenodd" d="M12.288 16.433l3.534-3.64a3.377 3.377 0 00.6-3.812l-.2-.413a3.378 3.378 0 01.6-3.813L21.205.242a.785.785 0 011.133 0 .818.818 0 01.15.214l1.77 3.647c1.354 2.79.823 6.159-1.317 8.364l-9.617 9.908c-2.33 2.4-5.778 3.238-8.904 2.165L.55 23.21a.832.832 0 01-.508-1.044.83.83 0 01.194-.323l4.25-4.378a3.137 3.137 0 013.702-.62l.4.207a3.137 3.137 0 003.701-.619z"/></svg><svg viewBox="0 0 25 25" id="pie" xmlns="http://www.w3.org/2000/svg"><path fill-rule="evenodd" clip-rule="evenodd" d="M2.025 15.833c1.259 4.888 5.696 8.5 10.977 8.5 6.259 0 11.333-5.074 11.333-11.333 0-5.78-4.327-10.55-9.918-11.246v14.08H2.025z"/><path fill-rule="evenodd" clip-rule="evenodd" d="M11.582 10.167V.25C5.803.25 1.035 4.577.338 10.167h11.244z"/></svg><svg viewBox="0 0 11 14" id="pin" xmlns="http://www.w3.org/2000/svg"><path d="M5.5 14a23.269 23.269 0 01-2.75-2.746C1.493 9.768 0 7.555 0 5.446A5.443 5.443 0 013.395.415a5.542 5.542 0 015.996 1.181A5.38 5.38 0 0111 5.446c0 2.11-1.493 4.322-2.75 5.808A23.268 23.268 0 015.5 14zm0-10.887c-.842 0-1.62.445-2.041 1.167a2.312 2.312 0 000 2.333A2.362 2.362 0 005.5 7.779c1.302 0 2.357-1.044 2.357-2.333 0-1.288-1.055-2.333-2.357-2.333z"/></svg><svg viewBox="0 0 25 23" id="plane" xmlns="http://www.w3.org/2000/svg"><path fill-rule="evenodd" clip-rule="evenodd" d="M0 .5A.5.5 0 01.708.047l24 10.998a.5.5 0 010 .91l-24 10.998A.5.5 0 010 22.497v-9.034L20.56 11.5 0 9.537V.5z"/></svg></svg>